<?xml version="1.0" encoding="UTF-8"?>
<svg id="_图层_2" data-name="图层 2" xmlns="http://www.w3.org/2000/svg" viewBox="0 0 96.52 106.05">
  <defs>
    <style>
      .cls-1, .cls-2 {
        stroke-width: 0px;
      }

      .cls-2 {
        fill: #fff;
      }
    </style>
  </defs>
  <g id="_图层_1-2" data-name="图层 1">
    <path class="cls-1" d="m.18,15.46L15.64.61s13.55,11.55,32.29,2.89c0,0,16.87,9.43,33.07-3.5l15.42,14.85c.82,1.74-13.92,15.8-1.63,42.56,7.75,16.86-12.43,32.75-26.8,38.04,0,0-16.94,4.89-20.07,10.6,0,0-1.61-4-12.79-7.75S1.5,85.77.01,65.41c0,0-.35-4.78,2.42-12.89S11.01,36.06.18,15.46Z"/>
    <path class="cls-2" d="m68.29,31.3c-1.94-.61-4.04-.94-6.22-.94-10.41,0-19.76,7.54-19.76,16.84s9.35,16.84,19.76,16.84c1.86,0,3.67-.25,5.37-.69.02,0,.04.02.02.04-.73.53-1.49,1.03-2.29,1.49l-.3,5.85c0,.12-.15.19-.25.11l-4.65-3.72c-1.78.55-3.66.91-5.6,1.06l-4.29,18.57c-.03.13-.22.13-.25,0l-5.53-19.7c-6.22-1.96-11.27-6.14-13.94-11.47l-8.85-.99c-.18-.02-.24-.24-.1-.35l6.95-5.63c-.03-.29-.05-.58-.06-.87l-9.24-5.74c-.15-.1-.11-.34.06-.38l10.85-2.68c.84-1.87,1.96-3.62,3.33-5.19l-5.5-13.52c-.05-.13.1-.25.21-.17l12.22,8.28c3.54-1.84,7.64-2.89,12.02-2.89,4.06,0,7.88.91,11.24,2.51l4.08-3.49s.13,0,.12.06l-.68,5.47c.49.34.96.69,1.42,1.07.12.1.01.29-.13.24Z"/>
    <path class="cls-2" d="m57.59,36.37v6.3c0,.22-.18.4-.4.4h-6.63c-.25,0-.43-.22-.39-.46.53-3.47,3.39-6.2,6.97-6.62.24-.03.45.15.45.39Z"/>
    <path class="cls-2" d="m65.69,43.06h-6.27c-.22,0-.4-.18-.4-.4v-6.25c0-.25.22-.43.47-.39,1.68.28,3.17,1.07,4.33,2.19,1.19,1.16,2,2.68,2.27,4.38.04.24-.15.46-.39.46Z"/>
    <path class="cls-2" d="m65.78,44.49c.22,0,.4.18.4.4v5.95c0,3.8-3.15,6.89-7.04,6.89h-2c-3.89,0-7.04-3.08-7.04-6.89v-5.95c0-.22.18-.4.4-.4h15.3Z"/>
  </g>
</svg>