<?xml version="1.0" encoding="UTF-8"?>
<svg id="_图层_1" data-name="图层 1" xmlns="http://www.w3.org/2000/svg" viewBox="0 0 148.79 162.48">
  <defs>
    <style>
      .cls-1 {
        stroke: #fff;
      }

      .cls-1, .cls-2, .cls-3 {
        fill: none;
        stroke-miterlimit: 10;
      }

      .cls-2 {
        stroke-width: 3px;
      }

      .cls-2, .cls-3 {
        stroke: #279af1;
      }

      .cls-4 {
        fill: #279af1;
        stroke-width: 0px;
      }

      .cls-3 {
        stroke-width: 5px;
      }
    </style>
  </defs>
  <path class="cls-4" d="m106.18,46.39c-2.77-.87-5.76-1.34-8.86-1.34-14.84,0-28.16,10.75-28.16,24s13.32,24,28.16,24c2.65,0,5.23-.35,7.65-.99.03-.01.05.03.03.05-1.04.76-2.13,1.47-3.27,2.12l-.43,8.33c-.01.17-.21.27-.35.16l-6.63-5.3c-2.54.78-5.21,1.3-7.98,1.51l-6.12,26.46c-.04.19-.31.19-.36.01l-7.88-28.07c-8.87-2.79-16.06-8.75-19.86-16.35l-12.61-1.41c-.25-.03-.34-.34-.14-.5l9.91-8.02c-.04-.41-.07-.83-.09-1.24l-13.17-8.18c-.22-.14-.16-.48.09-.54l15.46-3.82c1.2-2.67,2.8-5.16,4.75-7.39l-7.84-19.27c-.07-.18.14-.35.3-.24l17.41,11.8c5.04-2.62,10.89-4.12,17.13-4.12,5.78,0,11.23,1.29,16.01,3.57l5.82-4.97c.07-.07.18,0,.17.09l-.97,7.79c.7.48,1.37.99,2.02,1.52.17.14.02.41-.19.34Z"/>
  <rect class="cls-1" x="85.16" y="63.55" width="21" height="1"/>
  <path class="cls-1" d="m96.16,53.06v10.59c0,.22-.18.4-.4.4h-.2c-.22,0-.4-.18-.4-.4v-10.59c.17-.01.33-.01.5-.01s.33,0,.5.01Z"/>
  <path class="cls-4" d="m90.93,53.61v8.98c0,.31-.25.56-.56.56h-9.45c-.35,0-.61-.32-.56-.66.76-4.95,4.83-8.83,9.93-9.44.34-.04.64.22.64.56Z"/>
  <path class="cls-4" d="m102.47,63.16h-8.94c-.31,0-.56-.25-.56-.56v-8.91c0-.35.32-.62.67-.56,2.39.4,4.52,1.52,6.17,3.12,1.69,1.65,2.86,3.82,3.23,6.25.05.35-.21.66-.56.66Z"/>
  <path class="cls-4" d="m102.59,65.19c.31,0,.56.25.56.56v8.48c0,5.42-4.49,9.81-10.04,9.81h-2.86c-5.55,0-10.04-4.39-10.04-9.81v-8.48c0-.31.25-.56.56-.56h21.8Z"/>
  <path class="cls-3" d="m145.66,116.26l-69.18,43.29L3.16,116.26l16.27-38.33c4.92-11.59,6.54-23.91,4.75-36.07L18.65,4.39h0c37.13-2.52,74.39-2.52,111.52,0h0s-5.53,37.47-5.53,37.47c-1.8,12.15-.17,24.48,4.75,36.07l16.27,38.33Z"/>
  <path class="cls-2" d="m135.85,112.81l-59.66,38.99L12.97,112.81l14.03-34.53c4.24-10.44,5.64-21.54,4.1-32.49l-4.77-33.76h0c32.02-2.27,64.15-2.27,96.17,0h0s-4.77,33.76-4.77,33.76c-1.55,10.95-.15,22.05,4.1,32.49l14.03,34.53Z"/>
</svg>