<?xml version="1.0" encoding="UTF-8"?>
<svg id="_图层_2" data-name="图层 2" xmlns="http://www.w3.org/2000/svg" viewBox="0 0 125.75 125.75">
  <defs>
    <style>
      .cls-1, .cls-2 {
        stroke-width: 0px;
      }

      .cls-3 {
        fill: none;
        stroke: #fff;
        stroke-miterlimit: 10;
        stroke-width: 5px;
      }

      .cls-2 {
        fill: #f9f9f9;
      }
    </style>
  </defs>
  <g id="_图层_1-2" data-name="图层 1">
    <circle class="cls-3" cx="62.88" cy="62.87" r="60.37"/>
    <path class="cls-2" d="m75.56,80.05l-7.7.3c-2.45.1-4.91.1-7.36,0l-8.78-.33c-7.88-.3-14.09-6.15-14.09-13.28v-7.51c0-7.12,6.22-12.98,14.09-13.28l9.24-.35c2.14-.08,4.29-.08,6.43,0l8.16.32c7.86.31,14.06,6.16,14.06,13.28v7.55c0,7.12-6.2,12.97-14.06,13.28Z"/>
    <path class="cls-1" d="m57.99,69.48v-12.28c0-.61.66-.99,1.19-.68l10.76,6.36c.52.31.51,1.07-.02,1.37l-10.76,5.92c-.52.29-1.17-.09-1.17-.69Z"/>
  </g>
</svg>